<mxfile host="app.diagrams.net" modified="2023-03-30T12:10:18.348Z" agent="Mozilla/5.0 (Windows NT 10.0; Win64; x64; rv:109.0) Gecko/20100101 Firefox/111.0" etag="3T4Ic-M_g4zNeq4Mhcgm" version="21.1.2" type="device">
  <diagram name="Page-1" id="mdpjn57YCdcAAkX0H43z">
    <mxGraphModel dx="1588" dy="2194" grid="1" gridSize="10" guides="1" tooltips="1" connect="1" arrows="1" fold="1" page="1" pageScale="1" pageWidth="850" pageHeight="1100" math="0" shadow="0">
      <root>
        <mxCell id="0" />
        <mxCell id="1" parent="0" />
        <mxCell id="vuGsGzaFiT-Mfd9MDiGt-1" value="&lt;div style=&quot;font-size: 30px;&quot;&gt;&lt;b&gt;&lt;font style=&quot;font-size: 30px;&quot; color=&quot;#0000ff&quot;&gt;&lt;u&gt;Django Project&lt;/u&gt;&lt;/font&gt;&lt;/b&gt;&lt;/div&gt;" style="text;html=1;strokeColor=none;fillColor=none;align=center;verticalAlign=middle;whiteSpace=wrap;rounded=0;" vertex="1" parent="1">
          <mxGeometry x="830" y="-130" width="372" height="30" as="geometry" />
        </mxCell>
        <mxCell id="vuGsGzaFiT-Mfd9MDiGt-2" value="&lt;font color=&quot;#0000ff&quot;&gt;&lt;font style=&quot;font-size: 28px;&quot;&gt;&lt;u&gt;&lt;b&gt;Django app&lt;/b&gt;&lt;/u&gt;&lt;/font&gt;&lt;/font&gt;" style="text;html=1;strokeColor=none;fillColor=none;align=center;verticalAlign=middle;whiteSpace=wrap;rounded=0;" vertex="1" parent="1">
          <mxGeometry x="263.5" y="330" width="183" height="45" as="geometry" />
        </mxCell>
        <mxCell id="vuGsGzaFiT-Mfd9MDiGt-3" value="&lt;ul&gt;&lt;li&gt;&lt;h1&gt;&lt;font style=&quot;font-size: 20px;&quot; color=&quot;#0000ff&quot;&gt;admin.py&lt;/font&gt;&lt;/h1&gt;&lt;/li&gt;&lt;/ul&gt;&lt;p style=&quot;font-size: 14px;&quot;&gt;&lt;font style=&quot;font-size: 14px;&quot;&gt;- register models with the Django admin page&lt;/font&gt;&lt;/p&gt;&lt;p style=&quot;font-size: 14px;&quot;&gt;&lt;font style=&quot;font-size: 14px;&quot;&gt;- customize how models are shown on admin page&lt;/font&gt;&lt;/p&gt;&lt;p style=&quot;font-size: 14px;&quot;&gt;&lt;font style=&quot;font-size: 14px;&quot;&gt;- possible to display foreign key attributes in regards to foreign key table&lt;/font&gt;&lt;br&gt;&lt;/p&gt;" style="text;html=1;strokeColor=default;fillColor=none;spacing=5;spacingTop=-20;whiteSpace=wrap;overflow=hidden;rounded=0;" vertex="1" parent="1">
          <mxGeometry x="260" y="390" width="190" height="210" as="geometry" />
        </mxCell>
        <mxCell id="vuGsGzaFiT-Mfd9MDiGt-4" value="&lt;ul&gt;&lt;li&gt;&lt;h1&gt;&lt;font style=&quot;font-size: 20px;&quot; color=&quot;#0000ff&quot;&gt;views.py&lt;/font&gt;&lt;/h1&gt;&lt;/li&gt;&lt;/ul&gt;&lt;p style=&quot;font-size: 14px;&quot;&gt;&lt;font style=&quot;font-size: 14px;&quot;&gt;- generate HTTP response based on request&lt;/font&gt;&lt;/p&gt;&lt;p style=&quot;font-size: 14px;&quot;&gt;&lt;font style=&quot;font-size: 14px;&quot;&gt;- plain text response&lt;/font&gt;&lt;/p&gt;&lt;p style=&quot;font-size: 14px;&quot;&gt;&lt;font style=&quot;font-size: 14px;&quot;&gt;- redirect&lt;/font&gt;&lt;/p&gt;&lt;p style=&quot;font-size: 14px;&quot;&gt;&lt;font style=&quot;font-size: 14px;&quot;&gt;- context inside a generic response&lt;/font&gt;&lt;br&gt;&lt;/p&gt;" style="text;html=1;strokeColor=default;fillColor=none;spacing=5;spacingTop=-20;whiteSpace=wrap;overflow=hidden;rounded=0;" vertex="1" parent="1">
          <mxGeometry x="450" y="390" width="190" height="200" as="geometry" />
        </mxCell>
        <mxCell id="vuGsGzaFiT-Mfd9MDiGt-5" value="&lt;ul&gt;&lt;li&gt;&lt;h1&gt;&lt;font style=&quot;font-size: 20px;&quot; color=&quot;#0000ff&quot;&gt;models.py&lt;/font&gt;&lt;/h1&gt;&lt;/li&gt;&lt;/ul&gt;&lt;p style=&quot;font-size: 14px;&quot;&gt;&lt;font style=&quot;font-size: 14px;&quot;&gt;- describe ORM data-structures for data to be stored in database&lt;/font&gt;&lt;/p&gt;&lt;p style=&quot;font-size: 14px;&quot;&gt;&lt;font style=&quot;font-size: 14px;&quot;&gt;- additionally customize some aspects of how data is presented on Django admin page&lt;/font&gt;&lt;br&gt;&lt;/p&gt;" style="text;html=1;strokeColor=default;fillColor=none;spacing=5;spacingTop=-20;whiteSpace=wrap;overflow=hidden;rounded=0;" vertex="1" parent="1">
          <mxGeometry x="640" y="390" width="190" height="180" as="geometry" />
        </mxCell>
        <mxCell id="vuGsGzaFiT-Mfd9MDiGt-6" value="&lt;ul&gt;&lt;li&gt;&lt;h1&gt;&lt;font style=&quot;font-size: 20px;&quot; color=&quot;#0000ff&quot;&gt;urls.py&lt;/font&gt;&lt;/h1&gt;&lt;/li&gt;&lt;/ul&gt;&lt;p style=&quot;font-size: 14px;&quot;&gt;&lt;font style=&quot;font-size: 14px;&quot;&gt;- an URL-dispatcher to direct to a right view based on URL&lt;/font&gt;&lt;/p&gt;&lt;p style=&quot;font-size: 14px;&quot;&gt;&lt;font style=&quot;font-size: 14px;&quot;&gt;- capture URL parameters to pass to view&lt;/font&gt;&lt;br&gt;&lt;/p&gt;" style="text;html=1;strokeColor=default;fillColor=none;spacing=5;spacingTop=-20;whiteSpace=wrap;overflow=hidden;rounded=0;" vertex="1" parent="1">
          <mxGeometry x="830" y="390" width="190" height="120" as="geometry" />
        </mxCell>
        <mxCell id="vuGsGzaFiT-Mfd9MDiGt-7" value="&lt;ul&gt;&lt;li&gt;&lt;h1&gt;&lt;font style=&quot;font-size: 20px;&quot; color=&quot;#0000ff&quot;&gt;tests.py&lt;/font&gt;&lt;/h1&gt;&lt;/li&gt;&lt;/ul&gt;&lt;p&gt;&lt;font style=&quot;font-size: 14px;&quot;&gt;- write unittest-style tests for both models as well as views&lt;/font&gt;&lt;br&gt;&lt;/p&gt;" style="text;html=1;strokeColor=default;fillColor=none;spacing=5;spacingTop=-20;whiteSpace=wrap;overflow=hidden;rounded=0;" vertex="1" parent="1">
          <mxGeometry x="1020" y="390" width="190" height="120" as="geometry" />
        </mxCell>
        <mxCell id="vuGsGzaFiT-Mfd9MDiGt-21" value="" style="group;strokeColor=default;" vertex="1" connectable="0" parent="1">
          <mxGeometry x="1220" y="390" width="160" height="200" as="geometry" />
        </mxCell>
        <mxCell id="vuGsGzaFiT-Mfd9MDiGt-15" value="" style="sketch=0;pointerEvents=1;shadow=0;dashed=0;html=1;strokeColor=none;labelPosition=center;verticalLabelPosition=bottom;verticalAlign=top;outlineConnect=0;align=center;shape=mxgraph.office.concepts.folder;fillColor=#E6E6E6;flipH=1;" vertex="1" parent="vuGsGzaFiT-Mfd9MDiGt-21">
          <mxGeometry width="160" height="200" as="geometry" />
        </mxCell>
        <mxCell id="vuGsGzaFiT-Mfd9MDiGt-16" value="&lt;b&gt;&lt;font style=&quot;font-size: 16px;&quot; color=&quot;#0000ff&quot;&gt;templates&lt;/font&gt;&lt;/b&gt;" style="text;html=1;strokeColor=none;fillColor=none;align=center;verticalAlign=middle;whiteSpace=wrap;rounded=0;" vertex="1" parent="vuGsGzaFiT-Mfd9MDiGt-21">
          <mxGeometry x="10" y="-3" width="60" height="30" as="geometry" />
        </mxCell>
        <mxCell id="vuGsGzaFiT-Mfd9MDiGt-28" value="" style="group" vertex="1" connectable="0" parent="vuGsGzaFiT-Mfd9MDiGt-21">
          <mxGeometry x="10" y="43" width="140" height="146" as="geometry" />
        </mxCell>
        <mxCell id="vuGsGzaFiT-Mfd9MDiGt-26" value="" style="sketch=0;pointerEvents=1;shadow=0;dashed=0;html=1;strokeColor=none;labelPosition=center;verticalLabelPosition=bottom;verticalAlign=top;outlineConnect=0;align=center;shape=mxgraph.office.concepts.folder;fillColor=#FFFFFF;flipH=1;" vertex="1" parent="vuGsGzaFiT-Mfd9MDiGt-28">
          <mxGeometry y="7" width="140" height="139" as="geometry" />
        </mxCell>
        <mxCell id="vuGsGzaFiT-Mfd9MDiGt-27" value="&lt;font style=&quot;font-size: 15px;&quot;&gt;&amp;lt;appname&amp;gt;&lt;/font&gt;" style="text;html=1;strokeColor=none;fillColor=none;align=center;verticalAlign=middle;whiteSpace=wrap;rounded=0;" vertex="1" parent="vuGsGzaFiT-Mfd9MDiGt-28">
          <mxGeometry x="12" width="60" height="30" as="geometry" />
        </mxCell>
        <mxCell id="vuGsGzaFiT-Mfd9MDiGt-32" value="&lt;div style=&quot;font-size: 13px;&quot; align=&quot;left&quot;&gt;&lt;font style=&quot;font-size: 14px;&quot;&gt;HTML templates&amp;nbsp; used by views&lt;/font&gt;&lt;/div&gt;" style="text;html=1;strokeColor=none;fillColor=none;align=left;verticalAlign=middle;whiteSpace=wrap;rounded=0;" vertex="1" parent="vuGsGzaFiT-Mfd9MDiGt-28">
          <mxGeometry y="41" width="128" height="44" as="geometry" />
        </mxCell>
        <mxCell id="vuGsGzaFiT-Mfd9MDiGt-22" value="" style="group;strokeColor=default;" vertex="1" connectable="0" parent="1">
          <mxGeometry x="1390" y="390" width="160" height="200" as="geometry" />
        </mxCell>
        <mxCell id="vuGsGzaFiT-Mfd9MDiGt-17" value="" style="sketch=0;pointerEvents=1;shadow=0;dashed=0;html=1;strokeColor=none;labelPosition=center;verticalLabelPosition=bottom;verticalAlign=top;outlineConnect=0;align=center;shape=mxgraph.office.concepts.folder;fillColor=#E6E6E6;flipH=1;" vertex="1" parent="vuGsGzaFiT-Mfd9MDiGt-22">
          <mxGeometry width="160" height="200" as="geometry" />
        </mxCell>
        <mxCell id="vuGsGzaFiT-Mfd9MDiGt-18" value="&lt;b&gt;&lt;font style=&quot;font-size: 16px;&quot; color=&quot;#0000ff&quot;&gt;static&lt;/font&gt;&lt;/b&gt;" style="text;html=1;strokeColor=none;fillColor=none;align=center;verticalAlign=middle;whiteSpace=wrap;rounded=0;" vertex="1" parent="vuGsGzaFiT-Mfd9MDiGt-22">
          <mxGeometry y="-2" width="60" height="30" as="geometry" />
        </mxCell>
        <mxCell id="vuGsGzaFiT-Mfd9MDiGt-29" value="" style="group" vertex="1" connectable="0" parent="vuGsGzaFiT-Mfd9MDiGt-22">
          <mxGeometry x="12" y="39" width="140" height="146" as="geometry" />
        </mxCell>
        <mxCell id="vuGsGzaFiT-Mfd9MDiGt-30" value="" style="sketch=0;pointerEvents=1;shadow=0;dashed=0;html=1;strokeColor=none;labelPosition=center;verticalLabelPosition=bottom;verticalAlign=top;outlineConnect=0;align=center;shape=mxgraph.office.concepts.folder;fillColor=#FFFFFF;flipH=1;" vertex="1" parent="vuGsGzaFiT-Mfd9MDiGt-29">
          <mxGeometry y="7" width="140" height="139" as="geometry" />
        </mxCell>
        <mxCell id="vuGsGzaFiT-Mfd9MDiGt-31" value="&lt;font style=&quot;font-size: 15px;&quot;&gt;&amp;lt;appname&amp;gt;&lt;/font&gt;" style="text;html=1;strokeColor=none;fillColor=none;align=center;verticalAlign=middle;whiteSpace=wrap;rounded=0;" vertex="1" parent="vuGsGzaFiT-Mfd9MDiGt-29">
          <mxGeometry x="12" width="60" height="30" as="geometry" />
        </mxCell>
        <mxCell id="vuGsGzaFiT-Mfd9MDiGt-34" value="&lt;div align=&quot;left&quot;&gt;&lt;font style=&quot;font-size: 14px;&quot;&gt;- css&lt;/font&gt;&lt;br&gt;&lt;font style=&quot;font-size: 14px;&quot;&gt;- js&lt;/font&gt;&lt;br&gt;&lt;font style=&quot;font-size: 14px;&quot;&gt;- image files&lt;/font&gt;&lt;br&gt;&lt;font style=&quot;font-size: 14px;&quot;&gt;etc.&lt;/font&gt;&lt;/div&gt;" style="text;html=1;strokeColor=none;fillColor=none;align=left;verticalAlign=middle;whiteSpace=wrap;rounded=0;" vertex="1" parent="vuGsGzaFiT-Mfd9MDiGt-29">
          <mxGeometry x="8" y="38" width="120" height="79" as="geometry" />
        </mxCell>
        <mxCell id="vuGsGzaFiT-Mfd9MDiGt-23" value="" style="group;strokeColor=default;" vertex="1" connectable="0" parent="1">
          <mxGeometry x="1560" y="390" width="160" height="200" as="geometry" />
        </mxCell>
        <mxCell id="vuGsGzaFiT-Mfd9MDiGt-19" value="" style="sketch=0;pointerEvents=1;shadow=0;dashed=0;html=1;strokeColor=none;labelPosition=center;verticalLabelPosition=bottom;verticalAlign=top;outlineConnect=0;align=center;shape=mxgraph.office.concepts.folder;fillColor=#E6E6E6;flipH=1;" vertex="1" parent="vuGsGzaFiT-Mfd9MDiGt-23">
          <mxGeometry width="160" height="200" as="geometry" />
        </mxCell>
        <mxCell id="vuGsGzaFiT-Mfd9MDiGt-20" value="&lt;b&gt;&lt;font style=&quot;font-size: 16px;&quot; color=&quot;#0000ff&quot;&gt;migrations&lt;/font&gt;&lt;/b&gt;" style="text;html=1;strokeColor=none;fillColor=none;align=center;verticalAlign=middle;whiteSpace=wrap;rounded=0;" vertex="1" parent="vuGsGzaFiT-Mfd9MDiGt-23">
          <mxGeometry x="10" y="-3" width="60" height="30" as="geometry" />
        </mxCell>
        <mxCell id="vuGsGzaFiT-Mfd9MDiGt-35" value="&lt;div style=&quot;font-size: 13px;&quot; align=&quot;left&quot;&gt;&lt;font style=&quot;font-size: 14px;&quot;&gt;models migration scripts to generated DB tables based on models&lt;/font&gt;&lt;br&gt;&lt;/div&gt;" style="text;html=1;strokeColor=none;fillColor=none;align=left;verticalAlign=middle;whiteSpace=wrap;rounded=0;" vertex="1" parent="vuGsGzaFiT-Mfd9MDiGt-23">
          <mxGeometry x="10" y="56" width="138" height="72" as="geometry" />
        </mxCell>
        <mxCell id="vuGsGzaFiT-Mfd9MDiGt-38" value="&lt;ul&gt;&lt;li&gt;&lt;h1&gt;&lt;font style=&quot;font-size: 20px;&quot; color=&quot;#0000ff&quot;&gt;manage.py&lt;/font&gt;&lt;/h1&gt;&lt;/li&gt;&lt;/ul&gt;&lt;font style=&quot;font-size: 14px;&quot;&gt;start new project/apps, test shell and DB shell, run test server&lt;/font&gt;" style="text;html=1;strokeColor=default;fillColor=none;spacing=5;spacingTop=-20;whiteSpace=wrap;overflow=hidden;rounded=0;" vertex="1" parent="1">
          <mxGeometry x="455" y="-40" width="820" height="75" as="geometry" />
        </mxCell>
        <mxCell id="vuGsGzaFiT-Mfd9MDiGt-39" value="&lt;ul&gt;&lt;li&gt;&lt;h1&gt;&lt;font style=&quot;font-size: 20px;&quot; color=&quot;#0000ff&quot;&gt;&amp;lt;projectname&amp;gt;/settings.py&lt;/font&gt;&lt;/h1&gt;&lt;/li&gt;&lt;/ul&gt;&lt;font style=&quot;font-size: 14px;&quot;&gt;all sorts of settings for the project: database connections, used apps, debug mode, manage static files locations and much more &lt;br&gt;&lt;/font&gt;" style="text;html=1;strokeColor=default;fillColor=none;spacing=5;spacingTop=-20;whiteSpace=wrap;overflow=hidden;rounded=0;" vertex="1" parent="1">
          <mxGeometry x="455" y="35" width="820" height="75" as="geometry" />
        </mxCell>
        <mxCell id="vuGsGzaFiT-Mfd9MDiGt-40" value="&lt;ul&gt;&lt;li&gt;&lt;h1&gt;&lt;font style=&quot;font-size: 20px;&quot; color=&quot;#0000ff&quot;&gt;&amp;lt;projectname&amp;gt;/urls.py&lt;/font&gt;&lt;/h1&gt;&lt;/li&gt;&lt;/ul&gt;&lt;font style=&quot;font-size: 14px;&quot;&gt;Project-level URL-dispatcher, usually made to include URL-dispatchers for individual apps&lt;br&gt;&lt;/font&gt;" style="text;html=1;strokeColor=default;fillColor=none;spacing=5;spacingTop=-20;whiteSpace=wrap;overflow=hidden;rounded=0;" vertex="1" parent="1">
          <mxGeometry x="455" y="110" width="820" height="75" as="geometry" />
        </mxCell>
        <mxCell id="vuGsGzaFiT-Mfd9MDiGt-41" value="&lt;ul&gt;&lt;li&gt;&lt;h1&gt;&lt;font style=&quot;font-size: 20px;&quot; color=&quot;#0000ff&quot;&gt;&amp;lt;projectname&amp;gt;/wsgi.py&lt;/font&gt;&lt;/h1&gt;&lt;/li&gt;&lt;li&gt;&lt;h1&gt;&lt;font style=&quot;font-size: 20px;&quot; color=&quot;#0000ff&quot;&gt;&amp;lt;projectname&amp;gt;/asgi.py &lt;/font&gt;&lt;/h1&gt;&lt;/li&gt;&lt;/ul&gt;&lt;div&gt;&lt;font style=&quot;font-size: 14px;&quot;&gt;An entry-point for WSGI-compatible (and ASGI-compatible&lt;/font&gt;&lt;font style=&quot;font-size: 14px;&quot;&gt;) web servers to serve your project.&lt;/font&gt;&lt;/div&gt;" style="text;html=1;strokeColor=default;fillColor=none;spacing=5;spacingTop=-20;whiteSpace=wrap;overflow=hidden;rounded=0;" vertex="1" parent="1">
          <mxGeometry x="455" y="185" width="820" height="125" as="geometry" />
        </mxCell>
      </root>
    </mxGraphModel>
  </diagram>
</mxfile>
